<svg width="20" height="20" viewBox="0 0 20 20" fill="none" xmlns="http://www.w3.org/2000/svg">
<path d="M9.98816 12.8402L12.6893 15.9113C13.6901 17.0491 14.1905 17.618 14.7142 17.4795C15.238 17.341 15.4177 16.5923 15.7768 15.0948L17.7694 6.78825C18.3227 4.48193 18.5992 3.32878 17.9843 2.76C17.3695 2.19122 16.3037 2.61437 14.1721 3.46068L4.28263 7.38707C2.57777 8.06395 1.72533 8.40242 1.67122 8.984C1.66568 9.0435 1.66559 9.10342 1.67094 9.16292C1.72328 9.74475 2.57467 10.0861 4.27745 10.7686C5.04898 11.0778 5.43474 11.2325 5.71133 11.5287C5.74243 11.5619 5.77233 11.5964 5.80098 11.632C6.05581 11.9487 6.16457 12.3642 6.38206 13.1953L6.7891 14.7508C7.00074 15.5596 7.10657 15.964 7.38373 16.0192C7.66088 16.0742 7.9022 15.7389 8.38483 15.0682L9.98816 12.8402ZM9.98816 12.8402L9.72332 12.5642C9.42191 12.2501 9.27124 12.0931 9.27124 11.8979C9.27124 11.7027 9.42191 11.5457 9.72332 11.2315L12.7008 8.12841" stroke="#565E64" stroke-width="1.25" stroke-linecap="round" stroke-linejoin="round"/>
</svg>
