<svg width="300" height="115" viewBox="0 0 300 115" fill="none" xmlns="http://www.w3.org/2000/svg">
<path d="M245.102 2.27344C253.096 2.27347 260.419 3.67563 267.065 6.48633H267.066C273.811 9.19159 279.562 13.0444 284.313 18.0459L284.766 18.5078C289.404 23.3142 292.998 29.0469 295.55 35.6992C298.186 42.57 299.5 50.1603 299.5 58.4639C299.5 66.6654 298.186 74.2548 295.551 81.2266L295.55 81.2285C292.916 88.0937 289.172 93.979 284.316 98.8779L284.317 98.8789C279.566 103.778 273.815 107.631 267.072 110.439L267.068 110.441C260.421 113.15 253.097 114.5 245.102 114.5C237.106 114.5 229.73 113.15 222.979 110.442L222.971 110.438C216.333 107.63 210.585 103.778 205.732 98.8828L205.729 98.8789C200.977 93.9795 197.286 88.0931 194.652 81.2285L194.651 81.2266C192.017 74.2548 190.702 66.6653 190.702 58.4639C190.702 50.1603 192.016 42.57 194.652 35.6992C197.286 28.8346 200.977 22.9492 205.729 18.0498L206.187 17.584C210.943 12.8092 216.54 9.11028 222.974 6.48828L223.608 6.22949C230.187 3.59045 237.353 2.27344 245.102 2.27344ZM43.3242 3.82031L42.7275 4.61914C41.3363 6.4833 40.6909 8.58528 40.7891 10.9443C40.9926 13.2118 42.1027 16.2786 44.1768 20.1699L66.9766 61.9971C69.2689 58.6777 71.1467 55.816 72.6094 53.4092C75.3939 48.3124 76.9846 43.2294 77.3955 38.1582L77.3965 38.1494C77.9131 32.9465 77.4991 28.1668 76.1631 23.8037L76.1592 23.7939V23.793C74.9228 19.4189 72.9676 15.561 70.2959 12.2129C67.6229 8.86323 64.5489 6.38742 61.0752 4.77344L61.2861 3.82031H106.334L105.517 4.66797C103.439 6.82169 101.571 8.9733 99.9121 11.123C98.3572 13.1701 96.748 15.4746 95.0859 18.0381C93.5236 20.609 91.8045 23.5943 89.9268 26.9932C88.0467 30.3962 85.8007 34.47 83.1895 39.2139L67.4268 68.3359V89.5576C67.4268 93.2519 67.6345 96.4213 68.0469 99.0693L68.209 100.007C68.6042 102.147 69.1156 103.961 69.7383 105.454C70.4482 107.156 71.3017 108.542 72.292 109.622L72.6768 109.988C73.5926 110.827 74.6259 111.553 75.7783 112.166L75.5439 113.107H32.6133L32.3779 112.166C33.6918 111.467 34.8507 110.621 35.8574 109.629C36.8506 108.547 37.7074 107.16 38.4189 105.454C39.1304 103.748 39.6957 101.624 40.1094 99.0723C40.5221 96.4237 40.7305 93.2532 40.7305 89.5576V68.3359L14.1543 19.0996V19.0986C12.3892 15.8182 10.6305 13.1145 8.88086 10.9805C7.12579 8.83993 5.05701 6.74626 2.67383 4.7002L1.65039 3.82031H43.3242ZM152.352 1.83203L187.602 100.83L187.994 101.842C188.919 104.147 189.917 106.09 190.987 107.677C192.305 109.374 193.981 110.877 196.021 112.187L197.456 113.107H153.716L154.863 112.214C156.744 110.748 157.995 108.689 158.6 106.001L158.603 105.987C159.302 103.224 159.012 100.03 157.678 96.3818L157.677 96.3789L150.588 76.5996H113.036C112.867 81.4221 113.183 85.7028 113.98 89.4463C114.911 93.2201 116.148 96.5242 117.687 99.3633L117.999 99.8936C119.574 102.521 121.372 104.832 123.393 106.828C125.664 108.866 128.09 110.65 130.67 112.178L132.239 113.107H85.4111L86.1738 112.271C88.039 110.224 89.7489 108.076 91.3027 105.826C92.8566 103.576 94.3612 101.067 95.8154 98.2979L95.8184 98.291L95.8223 98.2852C97.3768 95.5225 98.8298 92.4491 100.181 89.0635L100.186 89.0508L100.735 87.7588C102.023 84.6986 103.351 81.3211 104.72 77.627L127.846 12.832L124.775 4.49316L124.527 3.82031H130.258C137.324 3.82031 144.497 3.05084 151.776 1.51074L152.204 1.41992L152.352 1.83203ZM240.4 5.12988C236.959 5.12997 233.769 6.17702 230.82 8.28516C227.973 10.3957 225.514 13.4231 223.453 17.3906L223.45 17.3955C221.389 21.2624 219.783 25.9586 218.642 31.4932V31.4951C217.501 36.9213 216.929 42.9709 216.929 49.6465C216.929 58.0675 217.813 66.0728 219.579 73.6641L219.917 75.0586C221.646 81.9722 223.921 88.0639 226.736 93.3379C229.846 98.9667 233.36 103.399 237.269 106.65L237.645 106.949C241.53 109.989 245.58 111.489 249.802 111.489C253.351 111.489 256.537 110.44 259.375 108.339C262.228 106.226 264.69 103.246 266.752 99.3779C268.814 95.5101 270.419 90.8649 271.561 85.4346C272.702 79.9041 273.274 73.8023 273.274 67.127C273.274 58.6018 272.39 50.5965 270.624 43.1094C268.857 35.617 266.416 29.061 263.309 23.4355L263.304 23.4258C260.299 17.6965 256.787 13.217 252.777 9.96875L252.772 9.96484C248.879 6.72755 244.758 5.12988 240.4 5.12988ZM129.884 18.4756C128.074 22.3794 126.263 26.5415 124.453 30.9629L124.452 30.9668C122.473 35.6968 120.703 40.5298 119.141 45.4658C117.578 50.4037 116.223 55.3412 115.077 60.2783C114.078 65.0153 113.465 69.6067 113.235 74.0527H149.76L129.884 18.4756Z" fill="#1A2228" stroke="#1A2228"/>
</svg>
