<svg width="775" height="337" viewBox="0 0 775 337" fill="none" xmlns="http://www.w3.org/2000/svg">
<g clip-path="url(#clip0_328_6044)">
<rect width="105" height="1" transform="matrix(0 -1 -1 0 707.5 298)" fill="#20282E"/>
<rect width="155" height="1" transform="matrix(0 -1 -1 0 658.5 298)" fill="#20282E"/>
<rect width="170" height="1" transform="matrix(0 -1 -1 0 609.5 298)" fill="#20282E"/>
<rect width="510" height="1" transform="matrix(0 -1 -1 0 560.5 298)" fill="#20282E"/>
<rect width="270" height="1" transform="matrix(0 -1 -1 0 609.5 58)" fill="#20282E"/>
<rect width="473" height="1" transform="matrix(0 -1 -1 0 511.5 270)" fill="#20282E"/>
<rect width="500" height="1" transform="matrix(0 -1 -1 0 462.5 297)" fill="#20282E"/>
<rect width="500" height="1" transform="matrix(0 -1 -1 0 413.5 297)" fill="#20282E"/>
<rect width="500" height="1" transform="matrix(0 -1 -1 0 364.5 297)" fill="#20282E"/>
<rect width="500" height="1" transform="matrix(0 -1 -1 0 315.5 297)" fill="#20282E"/>
<rect width="672" height="1" transform="matrix(0 -1 -1 0 266.5 469)" fill="#20282E"/>
<rect width="672" height="1" transform="matrix(0 -1 -1 0 217.5 469)" fill="#20282E"/>
<rect width="672" height="1" transform="matrix(0 -1 -1 0 168.5 469)" fill="#20282E"/>
<rect width="672" height="1" transform="matrix(0 -1 -1 0 119.5 469)" fill="#20282E"/>
<rect width="672" height="1" transform="matrix(0 -1 -1 0 70.5 469)" fill="#20282E"/>
<rect width="672" height="1" transform="matrix(0 -1 -1 0 21.5 469)" fill="#20282E"/>
<rect width="760" height="1" transform="matrix(-1 0 0 1 523.5 17)" fill="#20282E"/>
<rect width="860" height="1" transform="matrix(-1 0 0 1 623.5 66)" fill="#20282E"/>
<rect width="810" height="1" transform="matrix(-1 0 0 1 573.5 115)" fill="#20282E"/>
<rect width="900" height="1" transform="matrix(-1 0 0 1 663.5 164)" fill="#20282E"/>
<rect width="960" height="1" transform="matrix(-1 0 0 1 723.5 213)" fill="#20282E"/>
<rect width="1001" height="1" transform="matrix(-1 0 0 1 764.5 262)" fill="#20282E"/>
<rect width="920" height="1" transform="matrix(-1 0 0 1 683.5 311)" fill="#20282E"/>
<path d="M727.5 289.5C695.167 251.834 628.5 181 610 164C585.515 141.5 557.5 141 535 164C522.525 176.752 513.5 185.667 511 189C495 203 480.768 203.386 463.5 212.5C445.5 222 404.5 262 366 262C327.5 262 282 229.5 265 212.5C255.382 202.883 227.5 174.5 217.5 164C209.844 155.961 181.798 122.546 167.5 113.5C143 98.0002 90.5 98.5002 71 113.5C56.4872 124.664 23.396 160.277 20.5 164C17 168.5 -6.67177 184.043 -28.5 189.5C-36.5 191.5 -65 192 -77 189.5C-94.6217 185.829 -121.297 170.142 -127 164C-133.5 157 -164 131.5 -177 113.5C-195.074 88.474 -206.5 71.0003 -222.5 64.5003C-238.5 58.0003 -271.5 61.0003 -279 68.0003" stroke="#2F373D" stroke-opacity="0.9"/>
<circle cx="7" cy="7" r="7" transform="matrix(-1 0 0 1 664.5 206)" fill="#69C02F"/>
<circle cx="7" cy="7" r="7" transform="matrix(-1 0 0 1 616.5 158)" fill="#20282E"/>
<circle cx="7" cy="7" r="7" transform="matrix(-1 0 0 1 542.5 157)" fill="#1FADD8"/>
<circle cx="7" cy="7" r="7" transform="matrix(-1 0 0 1 518.5 181)" fill="#20282E"/>
<circle cx="7" cy="7" r="7" transform="matrix(-1 0 0 1 468.5 206)" fill="#20282E"/>
<circle cx="7" cy="7" r="7" transform="matrix(-1 0 0 1 370.5 255)" fill="#FD3235"/>
<circle cx="7" cy="7" r="7" transform="matrix(-1 0 0 1 272.5 206)" fill="#20282E"/>
<circle cx="7" cy="7" r="7" transform="matrix(-1 0 0 1 224.5 158)" fill="#20282E"/>
<circle cx="7" cy="7" r="7" transform="matrix(-1 0 0 1 174.5 108)" fill="#20282E"/>
<circle cx="7" cy="7" r="7" transform="matrix(-1 0 0 1 77.5 108)" fill="#1FADD8"/>
<circle cx="7" cy="7" r="7" transform="matrix(-1 0 0 1 27.5 157)" fill="#20282E"/>
</g>
<defs>
<clipPath id="clip0_328_6044">
<rect width="1064" height="389" fill="white" transform="translate(-289 -52)"/>
</clipPath>
</defs>
</svg>
