<svg width="48" height="48" viewBox="0 0 48 48" fill="none" xmlns="http://www.w3.org/2000/svg">
<g clip-path="url(#clip0_676_1402)">
<path d="M24 0C37.2561 0 48 10.7461 48 24C48 37.2561 37.2561 48 24 48C10.7461 48 0 37.255 0 24C0 10.7461 10.7461 0 24 0Z" fill="#F5AC37"/>
<path d="M24.8844 25.6945H34.004C34.1984 25.6945 34.2902 25.6945 34.3042 25.4396C34.3788 24.5119 34.3788 23.5787 34.3042 22.6499C34.3042 22.4696 34.2146 22.3951 34.0191 22.3951H15.8695C15.6449 22.3951 15.5844 22.4696 15.5844 22.6802V25.35C15.5844 25.6945 15.5844 25.6945 15.9441 25.6945H24.8844ZM33.2858 19.2749C33.3117 19.2069 33.3117 19.1323 33.2858 19.0654C33.1335 18.7338 32.9532 18.4174 32.7436 18.1204C32.4283 17.6128 32.0567 17.1451 31.6334 16.725C31.4336 16.4712 31.2025 16.2433 30.9433 16.05C29.6451 14.9451 28.1017 14.1632 26.4428 13.7701C25.6058 13.5822 24.7505 13.4925 23.8929 13.5001H15.8382C15.6136 13.5001 15.5833 13.5897 15.5833 13.7852V19.1097C15.5833 19.3343 15.5833 19.3948 15.8685 19.3948H33.1778C33.1778 19.3948 33.3279 19.3645 33.3582 19.2749H33.2847H33.2858ZM33.2858 28.8146C33.0309 28.7866 32.7739 28.7866 32.519 28.8146H15.8847C15.66 28.8146 15.5844 28.8146 15.5844 29.1149V34.3205C15.5844 34.5603 15.5844 34.6208 15.8847 34.6208H23.5646C23.9318 34.6489 24.299 34.6229 24.6587 34.5463C25.7732 34.4663 26.8695 34.2244 27.9149 33.8259C28.2951 33.6941 28.6623 33.5224 29.009 33.3161H29.1137C30.9141 32.3798 32.3764 30.9088 33.2988 29.103C33.2988 29.103 33.4035 28.8762 33.2858 28.8168V28.8146ZM12.5701 37.3197V37.2301V33.7352V32.5504V29.0252C12.5701 28.8298 12.5701 28.8006 12.3303 28.8006H9.0752C8.89483 28.8006 8.82031 28.8006 8.82031 28.5608V25.7107H12.3001C12.4945 25.7107 12.5701 25.7107 12.5701 25.4558V22.6359C12.5701 22.4555 12.5701 22.4113 12.3303 22.4113H9.0752C8.89483 22.4113 8.82031 22.4113 8.82031 22.1715V19.5319C8.82031 19.3667 8.82031 19.3224 9.06008 19.3224H12.285C12.5096 19.3224 12.5701 19.3224 12.5701 19.0373V10.9523C12.5701 10.7126 12.5701 10.6521 12.8704 10.6521H24.1197C24.9362 10.6845 25.7473 10.7741 26.5498 10.9221C28.2033 11.2277 29.792 11.8185 31.2446 12.662C32.2079 13.229 33.0946 13.9137 33.8841 14.7021C34.4781 15.3188 35.0138 15.9863 35.489 16.6969C35.961 17.4173 36.353 18.1873 36.6608 18.9919C36.6986 19.2015 36.8995 19.3429 37.109 19.3073H39.7939C40.1385 19.3073 40.1385 19.3073 40.1536 19.6378V22.0981C40.1536 22.3378 40.0639 22.3983 39.8231 22.3983H37.7527C37.5432 22.3983 37.4827 22.3983 37.4978 22.6683C37.5799 23.582 37.5799 24.4989 37.4978 25.4126C37.4978 25.6675 37.4978 25.6977 37.784 25.6977H40.1525C40.2573 25.8327 40.1525 25.9677 40.1525 26.1038C40.1676 26.2777 40.1676 26.4537 40.1525 26.6276V28.4431C40.1525 28.698 40.078 28.7736 39.8523 28.7736H37.0172C36.8196 28.7358 36.6273 28.8622 36.582 29.0587C35.907 30.8137 34.827 32.3873 33.4316 33.6488C32.9218 34.1078 32.3861 34.5398 31.8267 34.9383C31.2262 35.2839 30.6419 35.6436 30.0263 35.9287C28.8934 36.4384 27.7054 36.8143 26.486 37.053C25.3283 37.2603 24.1543 37.3543 22.976 37.3381H12.5658V37.323L12.5701 37.3197Z" fill="#FEFEFD"/>
</g>
<defs>
<clipPath id="clip0_676_1402">
<rect width="48" height="48" fill="white"/>
</clipPath>
</defs>
</svg>
