<svg width="20" height="21" viewBox="0 0 20 21" fill="none" xmlns="http://www.w3.org/2000/svg">
<path d="M2.5 6.33325H5" stroke="#565E64" stroke-width="1.25" stroke-linecap="round" stroke-linejoin="round"/>
<path d="M2.5 14.6667H7.5" stroke="#565E64" stroke-width="1.25" stroke-linecap="round" stroke-linejoin="round"/>
<path d="M15 14.6667H17.5" stroke="#565E64" stroke-width="1.25" stroke-linecap="round" stroke-linejoin="round"/>
<path d="M12.5 6.33325H17.5" stroke="#565E64" stroke-width="1.25" stroke-linecap="round" stroke-linejoin="round"/>
<path d="M5 6.33325C5 5.55669 5 5.1684 5.12687 4.86211C5.29602 4.45374 5.62048 4.12928 6.02886 3.96012C6.33515 3.83325 6.72343 3.83325 7.5 3.83325C8.27657 3.83325 8.66483 3.83325 8.97117 3.96012C9.3795 4.12928 9.704 4.45374 9.87317 4.86211C10 5.1684 10 5.55669 10 6.33325C10 7.10982 10 7.4981 9.87317 7.80439C9.704 8.21277 9.3795 8.53723 8.97117 8.70639C8.66483 8.83325 8.27657 8.83325 7.5 8.83325C6.72343 8.83325 6.33515 8.83325 6.02886 8.70639C5.62048 8.53723 5.29602 8.21277 5.12687 7.80439C5 7.4981 5 7.10982 5 6.33325Z" stroke="#565E64" stroke-width="1.25"/>
<path d="M10 14.6667C10 13.8902 10 13.5019 10.1268 13.1956C10.296 12.7872 10.6205 12.4627 11.0288 12.2936C11.3352 12.1667 11.7234 12.1667 12.5 12.1667C13.2766 12.1667 13.6648 12.1667 13.9712 12.2936C14.3795 12.4627 14.704 12.7872 14.8732 13.1956C15 13.5019 15 13.8902 15 14.6667C15 15.4433 15 15.8316 14.8732 16.1379C14.704 16.5462 14.3795 16.8707 13.9712 17.0399C13.6648 17.1667 13.2766 17.1667 12.5 17.1667C11.7234 17.1667 11.3352 17.1667 11.0288 17.0399C10.6205 16.8707 10.296 16.5462 10.1268 16.1379C10 15.8316 10 15.4433 10 14.6667Z" stroke="#565E64" stroke-width="1.25"/>
</svg>
