<svg width="1001" height="681" viewBox="0 0 1001 681" fill="none" xmlns="http://www.w3.org/2000/svg">
<rect x="57" y="510" width="105" height="1" transform="rotate(-90 57 510)" fill="#D9D9D9"/>
<rect x="106" y="510" width="155" height="1" transform="rotate(-90 106 510)" fill="#D9D9D9"/>
<rect x="155" y="510" width="170" height="1" transform="rotate(-90 155 510)" fill="#D9D9D9"/>
<rect x="204" y="510" width="510" height="1" transform="rotate(-90 204 510)" fill="#D9D9D9"/>
<rect x="155" y="270" width="270" height="1" transform="rotate(-90 155 270)" fill="#D9D9D9"/>
<rect x="106" y="140" width="130" height="1" transform="rotate(-90 106 140)" fill="#D9D9D9"/>
<rect x="253" y="482" width="473" height="1" transform="rotate(-90 253 482)" fill="#D9D9D9"/>
<rect x="302" y="509" width="500" height="1" transform="rotate(-90 302 509)" fill="#D9D9D9"/>
<rect x="351" y="509" width="500" height="1" transform="rotate(-90 351 509)" fill="#D9D9D9"/>
<rect x="400" y="509" width="500" height="1" transform="rotate(-90 400 509)" fill="#D9D9D9"/>
<rect x="449" y="509" width="500" height="1" transform="rotate(-90 449 509)" fill="#D9D9D9"/>
<rect x="498" y="681" width="672" height="1" transform="rotate(-90 498 681)" fill="#D9D9D9"/>
<rect x="547" y="681" width="672" height="1" transform="rotate(-90 547 681)" fill="#D9D9D9"/>
<rect x="596" y="681" width="672" height="1" transform="rotate(-90 596 681)" fill="#D9D9D9"/>
<rect x="645" y="681" width="672" height="1" transform="rotate(-90 645 681)" fill="#D9D9D9"/>
<rect x="694" y="681" width="672" height="1" transform="rotate(-90 694 681)" fill="#D9D9D9"/>
<rect x="743" y="681" width="672" height="1" transform="rotate(-90 743 681)" fill="#D9D9D9"/>
<rect x="792" y="681" width="672" height="1" transform="rotate(-90 792 681)" fill="#D9D9D9"/>
<rect x="841" y="681" width="672" height="1" transform="rotate(-90 841 681)" fill="#D9D9D9"/>
<rect x="890" y="681" width="672" height="1" transform="rotate(-90 890 681)" fill="#D9D9D9"/>
<rect x="939" y="681" width="672" height="1" transform="rotate(-90 939 681)" fill="#D9D9D9"/>
<rect x="988" y="681" width="672" height="1" transform="rotate(-90 988 681)" fill="#D9D9D9"/>
<rect y="180" width="1001" height="1" fill="#D9D9D9"/>
<rect y="33" width="1001" height="1" fill="#D9D9D9"/>
<rect x="241" y="229" width="760" height="1" fill="#D9D9D9"/>
<rect x="61" y="82" width="940" height="1" fill="#D9D9D9"/>
<rect x="141" y="278" width="860" height="1" fill="#D9D9D9"/>
<rect x="141" y="131" width="860" height="1" fill="#D9D9D9"/>
<rect x="191" y="327" width="810" height="1" fill="#D9D9D9"/>
<rect x="101" y="376" width="900" height="1" fill="#D9D9D9"/>
<rect x="41" y="425" width="960" height="1" fill="#D9D9D9"/>
<rect y="474" width="1001" height="1" fill="#D9D9D9"/>
<rect x="81" y="523" width="920" height="1" fill="#D9D9D9"/>
<rect x="141" y="572" width="860" height="1" fill="#D9D9D9"/>
<rect x="191" y="621" width="810" height="1" fill="#D9D9D9"/>
<rect x="361" y="670" width="640" height="1" fill="#D9D9D9"/>
</svg>
