<svg width="48" height="48" viewBox="0 0 48 48" fill="none" xmlns="http://www.w3.org/2000/svg">
<g clip-path="url(#clip0_676_3467)">
<mask id="mask0_676_3467" style="mask-type:luminance" maskUnits="userSpaceOnUse" x="0" y="0" width="48" height="48">
<path d="M48 24C48 10.7452 37.2548 0 24 0C10.7452 0 0 10.7452 0 24C0 37.2548 10.7452 48 24 48C37.2548 48 48 37.2548 48 24Z" fill="white"/>
</mask>
<g mask="url(#mask0_676_3467)">
<path d="M24 48C37.2547 48 48 37.2547 48 24C48 10.7452 37.2547 0 24 0C10.7452 0 0 10.7452 0 24C0 37.2547 10.7452 48 24 48Z" fill="white"/>
<path d="M14.1551 22.2949L13.8864 22.7071C10.8559 27.3561 11.5328 33.4446 15.5138 37.345C17.8557 39.6401 20.9252 40.7876 23.9948 40.7879C23.9948 40.7879 23.9948 40.7879 14.1551 22.2949Z" fill="#00A3FF"/>
<path opacity="0.6" d="M23.992 27.9154L14.1523 22.2949C23.992 40.7879 23.992 40.7879 23.992 40.7879C23.992 36.7601 23.992 32.145 23.992 27.9154Z" fill="#00A3FF"/>
<path opacity="0.6" d="M33.8434 22.2949L34.1122 22.7071C37.1429 27.3561 36.4658 33.4446 32.485 37.345C30.1429 39.6401 27.0735 40.7876 24.0039 40.7879C24.0039 40.7879 24.0039 40.7879 33.8434 22.2949Z" fill="#00A3FF"/>
<path opacity="0.2" d="M24.0039 27.9154L33.8437 22.2949C24.004 40.7879 24.0039 40.7879 24.0039 40.7879C24.0039 36.7601 24.0039 32.145 24.0039 27.9154Z" fill="#00A3FF"/>
<path opacity="0.2" d="M24.0078 15.3594V25.0531L32.4835 20.2095L24.0078 15.3594Z" fill="#00A3FF"/>
<path opacity="0.6" d="M24.0053 15.3594L15.5234 20.2093L24.0053 25.0531V15.3594Z" fill="#00A3FF"/>
<path d="M24.0053 7.20703L15.5234 20.2124L24.0053 15.3489V7.20703Z" fill="#00A3FF"/>
<path opacity="0.6" d="M24.0078 15.3474L32.4899 20.2111L24.0078 7.19922V15.3474Z" fill="#00A3FF"/>
</g>
<path d="M47.8402 23.9999C47.8402 10.8334 37.1666 0.159912 24.0002 0.159912C10.8337 0.159912 0.160156 10.8334 0.160156 23.9999C0.160156 37.1664 10.8337 47.8399 24.0002 47.8399C37.1666 47.8399 47.8402 37.1664 47.8402 23.9999Z" stroke="black"/>
</g>
<defs>
<clipPath id="clip0_676_3467">
<rect width="48" height="48" fill="white"/>
</clipPath>
</defs>
</svg>
