<svg width="14" height="15" viewBox="0 0 14 15" fill="none" xmlns="http://www.w3.org/2000/svg">
<path d="M8.75 5.75C8.75 4.7835 7.96652 4 7 4C6.03347 4 5.25 4.7835 5.25 5.75C5.25 6.71652 6.03347 7.5 7 7.5C7.96652 7.5 8.75 6.71652 8.75 5.75Z" stroke="#7E868C" stroke-width="0.875" stroke-linecap="round" stroke-linejoin="round"/>
<path d="M12.8346 7.49984C12.8346 4.27817 10.2229 1.6665 7.0013 1.6665C3.77964 1.6665 1.16797 4.27817 1.16797 7.49984C1.16797 10.7215 3.77964 13.3332 7.0013 13.3332C10.2229 13.3332 12.8346 10.7215 12.8346 7.49984Z" stroke="#7E868C" stroke-width="0.875" stroke-linecap="round" stroke-linejoin="round"/>
<path d="M9.91536 10.4167C9.91536 8.80585 8.60951 7.5 6.9987 7.5C5.38787 7.5 4.08203 8.80585 4.08203 10.4167" stroke="#7E868C" stroke-width="0.875" stroke-linecap="round" stroke-linejoin="round"/>
</svg>
