<svg width="14" height="14" viewBox="0 0 14 14" fill="none" xmlns="http://www.w3.org/2000/svg">
<path d="M12.25 6.52367V4.83025C12.25 3.87358 12.25 3.39524 12.0143 3.08317C11.7785 2.77108 11.2456 2.61957 10.1796 2.31656C9.45128 2.10953 8.80927 1.86012 8.29634 1.63242C7.59698 1.32197 7.24733 1.16675 7 1.16675C6.75267 1.16675 6.40302 1.32197 5.70366 1.63242C5.19073 1.86012 4.54874 2.10953 3.82044 2.31656C2.75446 2.61957 2.22146 2.77108 1.98573 3.08317C1.75 3.39524 1.75 3.87358 1.75 4.83025V6.52367C1.75 9.80504 4.70328 11.7738 6.17983 12.5531C6.53397 12.74 6.71102 12.8334 7 12.8334C7.28898 12.8334 7.46602 12.74 7.82017 12.5531C9.2967 11.7738 12.25 9.80504 12.25 6.52367Z" fill="#69C02F" stroke="#69C02F" stroke-width="0.875" stroke-linecap="round"/>
<path d="M5.25 7.58333C5.25 7.58333 5.83333 7.58333 6.41667 8.75C6.41667 8.75 8.26962 5.83333 9.91667 5.25" stroke="#FAFAFA" stroke-width="0.875" stroke-linecap="round" stroke-linejoin="round"/>
</svg>
